<?xml version="1.0" encoding="UTF-8" standalone="no"?>
<svg
   class="feather feather-pause-circle"
   fill="none"
   height="24"
   stroke="currentColor"
   stroke-linecap="round"
   stroke-linejoin="round"
   stroke-width="2"
   viewBox="0 0 24 24"
   width="24"
   version="1.1"
   id="svg15"
   sodipodi:docname="pause_icon.svg"
   inkscape:export-filename="8666549_pause_circle_icon.svg"
   inkscape:export-xdpi="96"
   inkscape:export-ydpi="96"
   inkscape:version="1.2.2 (b0a8486, 2022-12-01)"
   xmlns:inkscape="http://www.inkscape.org/namespaces/inkscape"
   xmlns:sodipodi="http://sodipodi.sourceforge.net/DTD/sodipodi-0.dtd"
   xmlns="http://www.w3.org/2000/svg"
   xmlns:svg="http://www.w3.org/2000/svg">
  <defs
     id="defs19" />
  <sodipodi:namedview
     id="namedview17"
     pagecolor="#ffffff"
     bordercolor="#000000"
     borderopacity="0.25"
     inkscape:showpageshadow="2"
     inkscape:pageopacity="0.0"
     inkscape:pagecheckerboard="0"
     inkscape:deskcolor="#d1d1d1"
     showgrid="false"
     inkscape:zoom="9.8333333"
     inkscape:cx="12"
     inkscape:cy="12"
     inkscape:window-width="1280"
     inkscape:window-height="456"
     inkscape:window-x="0"
     inkscape:window-y="23"
     inkscape:window-maximized="0"
     inkscape:current-layer="svg15" />
  <line
     x1="10"
     x2="10"
     y1="15"
     y2="9"
     id="line11" />
  <line
     x1="14"
     x2="14"
     y1="15"
     y2="9"
     id="line13" />
  <path
     style="fill:#666666;stroke:#000000;stroke-width:0.20339"
     d="M 9.6415218,15.863431 C 9.518935,15.814053 9.3358842,15.647356 9.2347421,15.492993 9.0671503,15.237216 9.0508475,14.927551 9.0508475,12 c 0,-2.9236096 0.016474,-3.2374767 0.1832846,-3.4920624 C 9.5857042,7.9713707 10.217195,7.9198139 10.686724,8.3893437 l 0.245479,0.2454791 v 3.3163932 c 0,2.080107 -0.03903,3.389328 -0.104709,3.512044 -0.111597,0.208521 -0.611393,0.507102 -0.8309184,0.496396 -0.072693,-0.0035 -0.2324671,-0.04685 -0.3550538,-0.09623 z"
     id="path196" />
  <path
     style="fill:#666666;stroke:#000000;stroke-width:0.20339"
     d="m 13.553404,15.81169 c -0.152407,-0.08497 -0.324017,-0.242148 -0.381356,-0.349286 -0.06509,-0.121625 -0.104251,-1.440513 -0.104251,-3.511188 V 8.6348228 l 0.245479,-0.2454791 c 0.46942,-0.4694208 1.100839,-0.4179916 1.452592,0.1183138 0.163417,0.2491569 0.186787,0.5886134 0.215595,3.1316575 0.01777,1.568716 0.0034,3.047559 -0.03194,3.286319 -0.118223,0.79877 -0.789041,1.224509 -1.396118,0.886056 z"
     id="path198" />
</svg>
