<?xml version="1.0" encoding="UTF-8" standalone="no"?>
<svg
   class="feather feather-play-circle"
   fill="none"
   height="24"
   stroke="currentColor"
   stroke-linecap="round"
   stroke-linejoin="round"
   stroke-width="2"
   viewBox="0 0 24 24"
   width="24"
   version="1.1"
   id="svg13"
   sodipodi:docname="play_icon.svg"
   inkscape:version="1.2.2 (b0a8486, 2022-12-01)"
   xmlns:inkscape="http://www.inkscape.org/namespaces/inkscape"
   xmlns:sodipodi="http://sodipodi.sourceforge.net/DTD/sodipodi-0.dtd"
   xmlns="http://www.w3.org/2000/svg"
   xmlns:svg="http://www.w3.org/2000/svg">
  <defs
     id="defs17" />
  <sodipodi:namedview
     id="namedview15"
     pagecolor="#ffffff"
     bordercolor="#000000"
     borderopacity="0.25"
     inkscape:showpageshadow="2"
     inkscape:pageopacity="0.0"
     inkscape:pagecheckerboard="0"
     inkscape:deskcolor="#d1d1d1"
     showgrid="false"
     inkscape:zoom="9.8333333"
     inkscape:cx="12"
     inkscape:cy="12"
     inkscape:window-width="1280"
     inkscape:window-height="456"
     inkscape:window-x="0"
     inkscape:window-y="23"
     inkscape:window-maximized="0"
     inkscape:current-layer="svg13" />
  <polygon
     points="10 8 16 12 10 16 10 8"
     id="polygon11" />
  <path
     style="fill:#666666;stroke:#000000;stroke-width:0.20339"
     d="M 9.540139,16.787172 C 9.3233737,16.653262 9.180276,16.458669 9.1085027,16.200205 8.9520134,15.63667 8.973422,8.194772 9.1328585,7.7338354 9.2968131,7.2598371 9.8057999,6.9588965 10.206989,7.0987516 c 0.436963,0.1523264 6.376018,4.1428724 6.562945,4.4097474 0.217064,0.309902 0.204883,0.714983 -0.0305,1.014221 -0.245101,0.311595 -6.280348,4.328328 -6.620792,4.40644 -0.1611774,0.03698 -0.3729307,-0.01499 -0.578505,-0.141988 z m 3.163568,-3.709107 c 1.147449,-0.768418 1.545134,-1.085301 1.454679,-1.159117 -0.3519,-0.28717 -3.041864,-2.0545412 -3.127041,-2.0545412 -0.06124,0 -0.09914,0.8163302 -0.09914,2.1355932 0,1.274117 0.03879,2.135593 0.09617,2.135593 0.05289,0 0.806793,-0.475887 1.675335,-1.057528 z"
     id="path194" />
</svg>
